<svg width="14" height="14" viewBox="0 0 14 14" fill="none" xmlns="http://www.w3.org/2000/svg">
<path d="M0.265869 7.00001L3.68064 9.71438V7.67861H9.82722V6.32142H3.68064V4.28564L0.265869 7.00001Z" fill="white"/>
<path d="M7.77905 0.891992C6.14785 0.887497 4.58269 1.5319 3.43274 2.68144L4.39843 3.64097C5.3013 2.74387 6.50193 2.24918 7.77905 2.24918C9.05618 2.24918 10.2568 2.74387 11.1597 3.64097C12.0625 4.53807 12.5604 5.73103 12.5604 7C12.5604 8.26897 12.0625 9.46193 11.1597 10.359C10.2568 11.2561 9.05618 11.7508 7.77905 11.7508C6.50193 11.7508 5.3013 11.2561 4.39844 10.359L3.43274 11.3186C4.59308 12.4722 6.13655 13.108 7.77905 13.108C9.42156 13.108 10.965 12.4722 12.1254 11.3186C13.2864 10.1656 13.9263 8.63201 13.9263 7C13.9263 5.36798 13.2864 3.83437 12.1254 2.68144C10.9754 1.5319 9.41026 0.887498 7.77905 0.891992Z" fill="white"/>
</svg>
